<svg xmlns="http://www.w3.org/2000/svg" xmlns:xlink="http://www.w3.org/1999/xlink" width="200" zoomAndPan="magnify" viewBox="0 0 150 30.000001" height="40" preserveAspectRatio="xMidYMid meet" version="1.0"><defs><g/><clipPath id="8ef8f75491"><path d="M 2.417969 4.199219 L 60.484375 4.199219 L 60.484375 24.523438 L 2.417969 24.523438 Z M 2.417969 4.199219 " clip-rule="nonzero"/></clipPath><clipPath id="94e25ec964"><path d="M 2.417969 24 L 62 24 L 62 27 L 2.417969 27 Z M 2.417969 24 " clip-rule="nonzero"/></clipPath></defs><g clip-path="url(#8ef8f75491)"><path fill="#2a7bbe" d="M 60.054688 4.367188 C 59.992188 4.367188 56.679688 4.367188 56.679688 4.367188 C 56.1875 4.367188 55.695312 4.863281 55.207031 4.925781 C 54.53125 4.925781 53.855469 4.738281 53.179688 4.617188 C 46.367188 3.441406 39.246094 5.109375 32.371094 6.597656 C 31.820312 6.71875 31.082031 6.78125 29.179688 6.347656 C 12.363281 2.574219 10.03125 5.050781 7.699219 4.925781 C 7.207031 4.925781 6.714844 4.429688 6.226562 4.367188 C 1.558594 4.367188 2.296875 4.183594 2.789062 5.605469 C 3.832031 9.132812 4.015625 18.847656 8.375 22.371094 C 11.871094 25.15625 17.824219 24.660156 21.753906 23.363281 C 26.113281 21.941406 29.734375 15.9375 29.550781 13.152344 C 29.304688 9.503906 33.476562 9.007812 33.414062 13.277344 C 33.355469 16.308594 37.035156 21.941406 41.210938 23.363281 C 45.261719 24.722656 51.152344 25.09375 54.589844 22.371094 C 58.886719 18.90625 59.070312 9.195312 60.117188 5.667969 C 60.300781 5.109375 60.789062 4.492188 60.054688 4.367188 Z M 27.644531 10.121094 C 27.214844 16.558594 25.128906 21.570312 18.992188 23.113281 C 14.449219 24.230469 9.230469 23.609375 7.023438 18.96875 C 5.488281 15.875 3.402344 6.96875 12.667969 5.914062 C 16.964844 5.421875 21.386719 5.792969 25.558594 7.027344 C 26.910156 7.398438 27.707031 8.699219 27.644531 10.121094 Z M 55.878906 18.96875 C 53.058594 24.910156 45.324219 24.105469 41.519531 22.25 C 37.035156 20.023438 35.5625 15.132812 35.257812 10.121094 C 35.195312 8.699219 35.992188 7.398438 37.34375 7.027344 C 41.519531 5.792969 45.9375 5.421875 50.234375 5.914062 C 59.378906 6.96875 57.476562 15.628906 55.878906 18.96875 Z M 55.878906 18.96875 " fill-opacity="1" fill-rule="nonzero"/></g><g clip-path="url(#94e25ec964)"><path stroke-linecap="butt" transform="matrix(0.730228, 0, 0, 0.725806, 2.419352, 24.24916)" fill="none" stroke-linejoin="miter" d="M -0.00189485 1.497338 L 79.527014 1.497338 " stroke="#000000" stroke-width="3" stroke-opacity="1" stroke-miterlimit="4"/></g><g fill="#100f0d" fill-opacity="1"><g transform="translate(89.154641, 21.424932)"><g><path d="M 1.875 -2.585938 C 2.417969 -2.585938 2.699219 -2.144531 2.699219 -1.601562 C 2.699219 -1.058594 2.417969 -0.621094 1.875 -0.621094 C 1.332031 -0.621094 1.046875 -1.058594 1.046875 -1.601562 C 1.046875 -2.144531 1.332031 -2.585938 1.875 -2.585938 Z M 1.875 -3.273438 C 0.777344 -3.273438 0.15625 -2.527344 0.15625 -1.601562 C 0.15625 -0.675781 0.777344 0.0703125 1.875 0.0703125 C 2.972656 0.0703125 3.59375 -0.675781 3.59375 -1.601562 C 3.59375 -2.527344 2.972656 -3.273438 1.875 -3.273438 Z M 1.875 -3.273438 "/></g></g></g><g fill="#100f0d" fill-opacity="1"><g transform="translate(93.396975, 21.424932)"><g/></g></g><g fill="#100f0d" fill-opacity="1"><g transform="translate(95.009264, 21.424932)"><g><path d="M 0.25 -0.378906 C 0.25 -0.125 0.449219 0.0703125 0.699219 0.0703125 C 0.953125 0.0703125 1.148438 -0.125 1.148438 -0.378906 L 1.148438 -1.097656 L 1.988281 -1.097656 C 2.527344 -1.097656 2.953125 -1.480469 2.953125 -2.144531 C 2.953125 -2.8125 2.527344 -3.203125 1.988281 -3.203125 L 0.699219 -3.203125 C 0.457031 -3.203125 0.25 -3.003906 0.25 -2.761719 Z M 1.148438 -1.792969 L 1.148438 -2.515625 L 1.734375 -2.515625 C 1.933594 -2.515625 2.0625 -2.347656 2.0625 -2.144531 C 2.0625 -1.929688 1.925781 -1.792969 1.734375 -1.792969 Z M 1.148438 -1.792969 "/></g></g></g><g fill="#100f0d" fill-opacity="1"><g transform="translate(98.586528, 21.424932)"><g/></g></g><g fill="#100f0d" fill-opacity="1"><g transform="translate(100.198817, 21.424932)"><g><path d="M 1.097656 -2.515625 L 1.097656 -0.378906 C 1.097656 -0.125 1.289062 0.0703125 1.542969 0.0703125 C 1.792969 0.0703125 1.988281 -0.125 1.988281 -0.378906 L 1.988281 -2.515625 L 2.671875 -2.515625 C 2.863281 -2.515625 3.023438 -2.671875 3.023438 -2.863281 C 3.023438 -3.054688 2.863281 -3.203125 2.671875 -3.203125 L 0.394531 -3.203125 C 0.207031 -3.203125 0.0507812 -3.054688 0.0507812 -2.863281 C 0.0507812 -2.671875 0.207031 -2.515625 0.394531 -2.515625 Z M 1.097656 -2.515625 "/></g></g></g><g fill="#100f0d" fill-opacity="1"><g transform="translate(103.755931, 21.424932)"><g/></g></g><g fill="#100f0d" fill-opacity="1"><g transform="translate(105.36822, 21.424932)"><g><path d="M 0.25 -0.378906 C 0.25 -0.125 0.449219 0.0703125 0.699219 0.0703125 C 0.953125 0.0703125 1.148438 -0.125 1.148438 -0.378906 L 1.148438 -2.828125 C 1.148438 -3.078125 0.953125 -3.273438 0.699219 -3.273438 C 0.449219 -3.273438 0.25 -3.078125 0.25 -2.828125 Z M 0.25 -0.378906 "/></g></g></g><g fill="#100f0d" fill-opacity="1"><g transform="translate(107.262658, 21.424932)"><g/></g></g><g fill="#100f0d" fill-opacity="1"><g transform="translate(108.874947, 21.424932)"><g><path d="M 1.875 -3.273438 C 0.816406 -3.273438 0.15625 -2.570312 0.15625 -1.601562 C 0.15625 -0.636719 0.816406 0.0703125 1.875 0.0703125 C 2.363281 0.0703125 2.734375 -0.121094 2.949219 -0.28125 C 3.046875 -0.351562 3.082031 -0.464844 3.082031 -0.535156 C 3.082031 -0.75 2.921875 -0.902344 2.714844 -0.902344 C 2.65625 -0.902344 2.578125 -0.867188 2.519531 -0.820312 C 2.386719 -0.71875 2.203125 -0.621094 1.929688 -0.621094 C 1.378906 -0.621094 1.046875 -1.019531 1.046875 -1.601562 C 1.046875 -2.1875 1.378906 -2.585938 1.929688 -2.585938 C 2.203125 -2.585938 2.386719 -2.484375 2.519531 -2.382812 C 2.578125 -2.335938 2.65625 -2.3125 2.714844 -2.3125 C 2.921875 -2.3125 3.082031 -2.453125 3.082031 -2.671875 C 3.082031 -2.742188 3.046875 -2.863281 2.949219 -2.933594 C 2.734375 -3.09375 2.363281 -3.273438 1.875 -3.273438 Z M 1.875 -3.273438 "/></g></g></g><g fill="#100f0d" fill-opacity="1"><g transform="translate(112.603365, 21.424932)"><g/></g></g><g fill="#100f0d" fill-opacity="1"><g transform="translate(114.215653, 21.424932)"><g><path d="M 1.492188 -3.273438 C 1.339844 -3.273438 1.1875 -3.175781 1.128906 -3.03125 L 0.0742188 -0.492188 C 0.0507812 -0.4375 0.0507812 -0.386719 0.0507812 -0.332031 C 0.0507812 -0.109375 0.222656 0.0703125 0.445312 0.0703125 C 0.605469 0.0703125 0.761719 -0.0195312 0.816406 -0.171875 L 0.9375 -0.503906 L 2.082031 -0.503906 L 2.203125 -0.179688 C 2.257812 -0.03125 2.417969 0.0703125 2.578125 0.0703125 C 2.800781 0.0703125 2.984375 -0.109375 2.984375 -0.332031 C 2.984375 -0.386719 2.972656 -0.445312 2.949219 -0.503906 L 1.863281 -3.03125 C 1.792969 -3.195312 1.652344 -3.273438 1.492188 -3.273438 Z M 1.1875 -1.203125 L 1.496094 -2.0625 L 1.820312 -1.203125 Z M 1.1875 -1.203125 "/></g></g></g><g fill="#100f0d" fill-opacity="1"><g transform="translate(117.732459, 21.424932)"><g/></g></g><g fill="#100f0d" fill-opacity="1"><g transform="translate(119.344748, 21.424932)"><g><path d="M 0.25 -2.828125 L 0.25 -0.449219 C 0.25 -0.195312 0.449219 0 0.699219 0 L 2.605469 0 C 2.796875 0 2.953125 -0.160156 2.953125 -0.351562 C 2.953125 -0.542969 2.796875 -0.691406 2.605469 -0.691406 L 1.148438 -0.691406 L 1.148438 -2.828125 C 1.148438 -3.078125 0.953125 -3.273438 0.699219 -3.273438 C 0.449219 -3.273438 0.25 -3.078125 0.25 -2.828125 Z M 0.25 -2.828125 "/></g></g></g><path stroke-linecap="butt" transform="matrix(0.715487, 0, 0, 0.725806, 125.031763, 18.572781)" fill="none" stroke-linejoin="miter" d="M -0.000717009 1.498161 L 13.195061 1.498161 " stroke="#000000" stroke-width="3" stroke-opacity="1" stroke-miterlimit="4"/><g fill="#000000" fill-opacity="1"><g transform="translate(64.350297, 15.75277)"><g><path d="M 0.40625 -3.578125 C 0.40625 -4.179688 0.5 -4.71875 0.6875 -5.1875 C 0.882812 -5.664062 1.148438 -6.0625 1.484375 -6.375 C 1.816406 -6.6875 2.207031 -6.925781 2.65625 -7.09375 C 3.113281 -7.257812 3.601562 -7.34375 4.125 -7.34375 C 4.644531 -7.34375 5.128906 -7.257812 5.578125 -7.09375 C 6.035156 -6.925781 6.429688 -6.6875 6.765625 -6.375 C 7.097656 -6.0625 7.359375 -5.664062 7.546875 -5.1875 C 7.742188 -4.71875 7.84375 -4.179688 7.84375 -3.578125 C 7.84375 -2.960938 7.75 -2.414062 7.5625 -1.9375 C 7.375 -1.46875 7.113281 -1.070312 6.78125 -0.75 C 6.445312 -0.4375 6.050781 -0.195312 5.59375 -0.03125 C 5.144531 0.132812 4.65625 0.21875 4.125 0.21875 C 3.59375 0.21875 3.097656 0.132812 2.640625 -0.03125 C 2.191406 -0.207031 1.800781 -0.453125 1.46875 -0.765625 C 1.132812 -1.085938 0.875 -1.484375 0.6875 -1.953125 C 0.5 -2.429688 0.40625 -2.972656 0.40625 -3.578125 Z M 2.53125 -3.578125 C 2.53125 -2.859375 2.671875 -2.320312 2.953125 -1.96875 C 3.242188 -1.613281 3.632812 -1.4375 4.125 -1.4375 C 4.613281 -1.4375 5.003906 -1.613281 5.296875 -1.96875 C 5.585938 -2.320312 5.734375 -2.859375 5.734375 -3.578125 C 5.734375 -4.273438 5.585938 -4.800781 5.296875 -5.15625 C 5.015625 -5.507812 4.628906 -5.6875 4.140625 -5.6875 C 3.648438 -5.6875 3.257812 -5.507812 2.96875 -5.15625 C 2.675781 -4.8125 2.53125 -4.285156 2.53125 -3.578125 Z M 2.53125 -3.578125 "/></g></g></g><g fill="#000000" fill-opacity="1"><g transform="translate(72.613097, 15.75277)"><g><path d="M 3.4375 -3.8125 C 3.757812 -3.8125 4.007812 -3.890625 4.1875 -4.046875 C 4.363281 -4.203125 4.453125 -4.4375 4.453125 -4.75 C 4.453125 -5.039062 4.359375 -5.265625 4.171875 -5.421875 C 3.992188 -5.585938 3.726562 -5.671875 3.375 -5.671875 C 3.25 -5.671875 3.144531 -5.664062 3.0625 -5.65625 C 2.976562 -5.65625 2.894531 -5.648438 2.8125 -5.640625 L 2.8125 -3.8125 Z M 2.8125 -0.046875 C 2.726562 -0.0234375 2.59375 -0.00390625 2.40625 0.015625 C 2.226562 0.046875 2.050781 0.0625 1.875 0.0625 C 1.6875 0.0625 1.523438 0.046875 1.390625 0.015625 C 1.253906 -0.015625 1.140625 -0.0625 1.046875 -0.125 C 0.953125 -0.195312 0.878906 -0.296875 0.828125 -0.421875 C 0.785156 -0.546875 0.765625 -0.710938 0.765625 -0.921875 L 0.765625 -6.453125 C 0.765625 -6.617188 0.804688 -6.742188 0.890625 -6.828125 C 0.984375 -6.921875 1.109375 -6.992188 1.265625 -7.046875 C 1.535156 -7.140625 1.835938 -7.207031 2.171875 -7.25 C 2.515625 -7.289062 2.859375 -7.3125 3.203125 -7.3125 C 4.285156 -7.3125 5.113281 -7.082031 5.6875 -6.625 C 6.257812 -6.164062 6.546875 -5.539062 6.546875 -4.75 C 6.546875 -4.363281 6.484375 -4.015625 6.359375 -3.703125 C 6.242188 -3.398438 6.066406 -3.132812 5.828125 -2.90625 C 5.585938 -2.6875 5.285156 -2.515625 4.921875 -2.390625 C 4.554688 -2.265625 4.132812 -2.203125 3.65625 -2.203125 L 2.8125 -2.203125 Z M 2.8125 -0.046875 "/></g></g></g><g fill="#000000" fill-opacity="1"><g transform="translate(79.441954, 15.75277)"><g><path d="M 0.4375 -5.46875 C 0.382812 -5.5625 0.332031 -5.679688 0.28125 -5.828125 C 0.238281 -5.972656 0.21875 -6.128906 0.21875 -6.296875 C 0.21875 -6.597656 0.285156 -6.816406 0.421875 -6.953125 C 0.554688 -7.085938 0.734375 -7.15625 0.953125 -7.15625 L 6.078125 -7.15625 C 6.128906 -7.070312 6.175781 -6.953125 6.21875 -6.796875 C 6.269531 -6.648438 6.296875 -6.492188 6.296875 -6.328125 C 6.296875 -6.023438 6.226562 -5.804688 6.09375 -5.671875 C 5.957031 -5.535156 5.78125 -5.46875 5.5625 -5.46875 L 4.25 -5.46875 L 4.25 -0.046875 C 4.164062 -0.0234375 4.03125 -0.00390625 3.84375 0.015625 C 3.664062 0.046875 3.484375 0.0625 3.296875 0.0625 C 3.117188 0.0625 2.960938 0.046875 2.828125 0.015625 C 2.691406 -0.015625 2.578125 -0.0625 2.484375 -0.125 C 2.390625 -0.195312 2.316406 -0.296875 2.265625 -0.421875 C 2.222656 -0.546875 2.203125 -0.710938 2.203125 -0.921875 L 2.203125 -5.46875 Z M 0.4375 -5.46875 "/></g></g></g><g fill="#000000" fill-opacity="1"><g transform="translate(85.976972, 15.75277)"><g><path d="M 2.8125 -0.046875 C 2.726562 -0.0234375 2.59375 -0.00390625 2.40625 0.015625 C 2.226562 0.046875 2.050781 0.0625 1.875 0.0625 C 1.6875 0.0625 1.523438 0.046875 1.390625 0.015625 C 1.253906 -0.015625 1.140625 -0.0625 1.046875 -0.125 C 0.953125 -0.195312 0.878906 -0.296875 0.828125 -0.421875 C 0.785156 -0.546875 0.765625 -0.710938 0.765625 -0.921875 L 0.765625 -7.125 C 0.847656 -7.132812 0.984375 -7.148438 1.171875 -7.171875 C 1.359375 -7.203125 1.539062 -7.21875 1.71875 -7.21875 C 1.894531 -7.21875 2.050781 -7.203125 2.1875 -7.171875 C 2.320312 -7.148438 2.4375 -7.101562 2.53125 -7.03125 C 2.625 -6.96875 2.691406 -6.875 2.734375 -6.75 C 2.785156 -6.625 2.8125 -6.457031 2.8125 -6.25 Z M 2.8125 -0.046875 "/></g></g></g><g fill="#000000" fill-opacity="1"><g transform="translate(89.561828, 15.75277)"><g><path d="M 4.390625 -5.6875 C 3.785156 -5.6875 3.320312 -5.5 3 -5.125 C 2.6875 -4.757812 2.53125 -4.242188 2.53125 -3.578125 C 2.53125 -2.890625 2.707031 -2.359375 3.0625 -1.984375 C 3.414062 -1.617188 3.894531 -1.4375 4.5 -1.4375 C 4.820312 -1.4375 5.09375 -1.476562 5.3125 -1.5625 C 5.539062 -1.65625 5.753906 -1.757812 5.953125 -1.875 C 6.085938 -1.757812 6.191406 -1.625 6.265625 -1.46875 C 6.335938 -1.320312 6.375 -1.144531 6.375 -0.9375 C 6.375 -0.613281 6.195312 -0.335938 5.84375 -0.109375 C 5.488281 0.109375 4.945312 0.21875 4.21875 0.21875 C 3.695312 0.21875 3.203125 0.144531 2.734375 0 C 2.273438 -0.15625 1.875 -0.382812 1.53125 -0.6875 C 1.1875 -1 0.910156 -1.390625 0.703125 -1.859375 C 0.503906 -2.335938 0.40625 -2.910156 0.40625 -3.578125 C 0.40625 -4.179688 0.5 -4.71875 0.6875 -5.1875 C 0.882812 -5.65625 1.148438 -6.046875 1.484375 -6.359375 C 1.816406 -6.679688 2.207031 -6.925781 2.65625 -7.09375 C 3.101562 -7.257812 3.582031 -7.34375 4.09375 -7.34375 C 4.8125 -7.34375 5.367188 -7.222656 5.765625 -6.984375 C 6.160156 -6.753906 6.359375 -6.457031 6.359375 -6.09375 C 6.359375 -5.882812 6.304688 -5.703125 6.203125 -5.546875 C 6.097656 -5.398438 5.976562 -5.285156 5.84375 -5.203125 C 5.644531 -5.335938 5.429688 -5.453125 5.203125 -5.546875 C 4.972656 -5.640625 4.703125 -5.6875 4.390625 -5.6875 Z M 4.390625 -5.6875 "/></g></g></g><g fill="#000000" fill-opacity="1"><g transform="translate(96.273152, 15.75277)"><g><path d="M 2.78125 -2.828125 C 2.4375 -2.953125 2.125 -3.070312 1.84375 -3.1875 C 1.5625 -3.3125 1.316406 -3.457031 1.109375 -3.625 C 0.910156 -3.800781 0.753906 -4.007812 0.640625 -4.25 C 0.523438 -4.488281 0.46875 -4.78125 0.46875 -5.125 C 0.46875 -5.789062 0.722656 -6.320312 1.234375 -6.71875 C 1.753906 -7.113281 2.472656 -7.3125 3.390625 -7.3125 C 3.734375 -7.3125 4.046875 -7.285156 4.328125 -7.234375 C 4.617188 -7.191406 4.867188 -7.125 5.078125 -7.03125 C 5.285156 -6.9375 5.445312 -6.8125 5.5625 -6.65625 C 5.6875 -6.5 5.75 -6.320312 5.75 -6.125 C 5.75 -5.914062 5.703125 -5.738281 5.609375 -5.59375 C 5.515625 -5.445312 5.398438 -5.328125 5.265625 -5.234375 C 5.085938 -5.335938 4.851562 -5.429688 4.5625 -5.515625 C 4.28125 -5.597656 3.96875 -5.640625 3.625 -5.640625 C 3.269531 -5.640625 3.007812 -5.585938 2.84375 -5.484375 C 2.675781 -5.390625 2.59375 -5.269531 2.59375 -5.125 C 2.59375 -5.007812 2.644531 -4.910156 2.75 -4.828125 C 2.851562 -4.753906 3.003906 -4.6875 3.203125 -4.625 L 3.828125 -4.4375 C 4.566406 -4.195312 5.132812 -3.894531 5.53125 -3.53125 C 5.925781 -3.164062 6.125 -2.671875 6.125 -2.046875 C 6.125 -1.378906 5.859375 -0.835938 5.328125 -0.421875 C 4.804688 -0.015625 4.035156 0.1875 3.015625 0.1875 C 2.660156 0.1875 2.328125 0.15625 2.015625 0.09375 C 1.703125 0.0390625 1.429688 -0.0390625 1.203125 -0.15625 C 0.972656 -0.269531 0.789062 -0.410156 0.65625 -0.578125 C 0.53125 -0.742188 0.46875 -0.9375 0.46875 -1.15625 C 0.46875 -1.382812 0.535156 -1.578125 0.671875 -1.734375 C 0.804688 -1.898438 0.953125 -2.023438 1.109375 -2.109375 C 1.328125 -1.941406 1.59375 -1.796875 1.90625 -1.671875 C 2.226562 -1.546875 2.578125 -1.484375 2.953125 -1.484375 C 3.335938 -1.484375 3.609375 -1.539062 3.765625 -1.65625 C 3.921875 -1.769531 4 -1.90625 4 -2.0625 C 4 -2.21875 3.9375 -2.335938 3.8125 -2.421875 C 3.6875 -2.503906 3.507812 -2.585938 3.28125 -2.671875 Z M 2.78125 -2.828125 "/></g></g></g><g fill="#000000" fill-opacity="1"><g transform="translate(102.749403, 15.75277)"><g/></g></g><g fill="#000000" fill-opacity="1"><g transform="translate(105.100128, 15.75277)"><g><path d="M 2.78125 -2.828125 C 2.4375 -2.953125 2.125 -3.070312 1.84375 -3.1875 C 1.5625 -3.3125 1.316406 -3.457031 1.109375 -3.625 C 0.910156 -3.800781 0.753906 -4.007812 0.640625 -4.25 C 0.523438 -4.488281 0.46875 -4.78125 0.46875 -5.125 C 0.46875 -5.789062 0.722656 -6.320312 1.234375 -6.71875 C 1.753906 -7.113281 2.472656 -7.3125 3.390625 -7.3125 C 3.734375 -7.3125 4.046875 -7.285156 4.328125 -7.234375 C 4.617188 -7.191406 4.867188 -7.125 5.078125 -7.03125 C 5.285156 -6.9375 5.445312 -6.8125 5.5625 -6.65625 C 5.6875 -6.5 5.75 -6.320312 5.75 -6.125 C 5.75 -5.914062 5.703125 -5.738281 5.609375 -5.59375 C 5.515625 -5.445312 5.398438 -5.328125 5.265625 -5.234375 C 5.085938 -5.335938 4.851562 -5.429688 4.5625 -5.515625 C 4.28125 -5.597656 3.96875 -5.640625 3.625 -5.640625 C 3.269531 -5.640625 3.007812 -5.585938 2.84375 -5.484375 C 2.675781 -5.390625 2.59375 -5.269531 2.59375 -5.125 C 2.59375 -5.007812 2.644531 -4.910156 2.75 -4.828125 C 2.851562 -4.753906 3.003906 -4.6875 3.203125 -4.625 L 3.828125 -4.4375 C 4.566406 -4.195312 5.132812 -3.894531 5.53125 -3.53125 C 5.925781 -3.164062 6.125 -2.671875 6.125 -2.046875 C 6.125 -1.378906 5.859375 -0.835938 5.328125 -0.421875 C 4.804688 -0.015625 4.035156 0.1875 3.015625 0.1875 C 2.660156 0.1875 2.328125 0.15625 2.015625 0.09375 C 1.703125 0.0390625 1.429688 -0.0390625 1.203125 -0.15625 C 0.972656 -0.269531 0.789062 -0.410156 0.65625 -0.578125 C 0.53125 -0.742188 0.46875 -0.9375 0.46875 -1.15625 C 0.46875 -1.382812 0.535156 -1.578125 0.671875 -1.734375 C 0.804688 -1.898438 0.953125 -2.023438 1.109375 -2.109375 C 1.328125 -1.941406 1.59375 -1.796875 1.90625 -1.671875 C 2.226562 -1.546875 2.578125 -1.484375 2.953125 -1.484375 C 3.335938 -1.484375 3.609375 -1.539062 3.765625 -1.65625 C 3.921875 -1.769531 4 -1.90625 4 -2.0625 C 4 -2.21875 3.9375 -2.335938 3.8125 -2.421875 C 3.6875 -2.503906 3.507812 -2.585938 3.28125 -2.671875 Z M 2.78125 -2.828125 "/></g></g></g><g fill="#000000" fill-opacity="1"><g transform="translate(111.576379, 15.75277)"><g><path d="M 4.5 -0.046875 C 4.414062 -0.0234375 4.28125 -0.00390625 4.09375 0.015625 C 3.914062 0.046875 3.742188 0.0625 3.578125 0.0625 C 3.210938 0.0625 2.9375 0 2.75 -0.125 C 2.570312 -0.25 2.484375 -0.503906 2.484375 -0.890625 L 2.484375 -2.484375 C 2.296875 -2.765625 2.085938 -3.082031 1.859375 -3.4375 C 1.628906 -3.789062 1.40625 -4.148438 1.1875 -4.515625 C 0.96875 -4.890625 0.765625 -5.253906 0.578125 -5.609375 C 0.390625 -5.960938 0.238281 -6.289062 0.125 -6.59375 C 0.21875 -6.726562 0.351562 -6.851562 0.53125 -6.96875 C 0.707031 -7.09375 0.925781 -7.15625 1.1875 -7.15625 C 1.488281 -7.15625 1.734375 -7.09375 1.921875 -6.96875 C 2.117188 -6.84375 2.304688 -6.609375 2.484375 -6.265625 L 3.453125 -4.296875 L 3.53125 -4.296875 C 3.632812 -4.546875 3.726562 -4.769531 3.8125 -4.96875 C 3.894531 -5.164062 3.972656 -5.363281 4.046875 -5.5625 C 4.128906 -5.757812 4.210938 -5.96875 4.296875 -6.1875 C 4.390625 -6.40625 4.488281 -6.65625 4.59375 -6.9375 C 4.738281 -7 4.894531 -7.050781 5.0625 -7.09375 C 5.238281 -7.132812 5.40625 -7.15625 5.5625 -7.15625 C 5.832031 -7.15625 6.0625 -7.082031 6.25 -6.9375 C 6.445312 -6.789062 6.546875 -6.570312 6.546875 -6.28125 C 6.546875 -6.1875 6.523438 -6.070312 6.484375 -5.9375 C 6.441406 -5.8125 6.347656 -5.613281 6.203125 -5.34375 C 6.066406 -5.070312 5.863281 -4.703125 5.59375 -4.234375 C 5.320312 -3.773438 4.957031 -3.175781 4.5 -2.4375 Z M 4.5 -0.046875 "/></g></g></g><g fill="#000000" fill-opacity="1"><g transform="translate(118.322963, 15.75277)"><g><path d="M 2.78125 -2.828125 C 2.4375 -2.953125 2.125 -3.070312 1.84375 -3.1875 C 1.5625 -3.3125 1.316406 -3.457031 1.109375 -3.625 C 0.910156 -3.800781 0.753906 -4.007812 0.640625 -4.25 C 0.523438 -4.488281 0.46875 -4.78125 0.46875 -5.125 C 0.46875 -5.789062 0.722656 -6.320312 1.234375 -6.71875 C 1.753906 -7.113281 2.472656 -7.3125 3.390625 -7.3125 C 3.734375 -7.3125 4.046875 -7.285156 4.328125 -7.234375 C 4.617188 -7.191406 4.867188 -7.125 5.078125 -7.03125 C 5.285156 -6.9375 5.445312 -6.8125 5.5625 -6.65625 C 5.6875 -6.5 5.75 -6.320312 5.75 -6.125 C 5.75 -5.914062 5.703125 -5.738281 5.609375 -5.59375 C 5.515625 -5.445312 5.398438 -5.328125 5.265625 -5.234375 C 5.085938 -5.335938 4.851562 -5.429688 4.5625 -5.515625 C 4.28125 -5.597656 3.96875 -5.640625 3.625 -5.640625 C 3.269531 -5.640625 3.007812 -5.585938 2.84375 -5.484375 C 2.675781 -5.390625 2.59375 -5.269531 2.59375 -5.125 C 2.59375 -5.007812 2.644531 -4.910156 2.75 -4.828125 C 2.851562 -4.753906 3.003906 -4.6875 3.203125 -4.625 L 3.828125 -4.4375 C 4.566406 -4.195312 5.132812 -3.894531 5.53125 -3.53125 C 5.925781 -3.164062 6.125 -2.671875 6.125 -2.046875 C 6.125 -1.378906 5.859375 -0.835938 5.328125 -0.421875 C 4.804688 -0.015625 4.035156 0.1875 3.015625 0.1875 C 2.660156 0.1875 2.328125 0.15625 2.015625 0.09375 C 1.703125 0.0390625 1.429688 -0.0390625 1.203125 -0.15625 C 0.972656 -0.269531 0.789062 -0.410156 0.65625 -0.578125 C 0.53125 -0.742188 0.46875 -0.9375 0.46875 -1.15625 C 0.46875 -1.382812 0.535156 -1.578125 0.671875 -1.734375 C 0.804688 -1.898438 0.953125 -2.023438 1.109375 -2.109375 C 1.328125 -1.941406 1.59375 -1.796875 1.90625 -1.671875 C 2.226562 -1.546875 2.578125 -1.484375 2.953125 -1.484375 C 3.335938 -1.484375 3.609375 -1.539062 3.765625 -1.65625 C 3.921875 -1.769531 4 -1.90625 4 -2.0625 C 4 -2.21875 3.9375 -2.335938 3.8125 -2.421875 C 3.6875 -2.503906 3.507812 -2.585938 3.28125 -2.671875 Z M 2.78125 -2.828125 "/></g></g></g><g fill="#000000" fill-opacity="1"><g transform="translate(124.799214, 15.75277)"><g><path d="M 0.4375 -5.46875 C 0.382812 -5.5625 0.332031 -5.679688 0.28125 -5.828125 C 0.238281 -5.972656 0.21875 -6.128906 0.21875 -6.296875 C 0.21875 -6.597656 0.285156 -6.816406 0.421875 -6.953125 C 0.554688 -7.085938 0.734375 -7.15625 0.953125 -7.15625 L 6.078125 -7.15625 C 6.128906 -7.070312 6.175781 -6.953125 6.21875 -6.796875 C 6.269531 -6.648438 6.296875 -6.492188 6.296875 -6.328125 C 6.296875 -6.023438 6.226562 -5.804688 6.09375 -5.671875 C 5.957031 -5.535156 5.78125 -5.46875 5.5625 -5.46875 L 4.25 -5.46875 L 4.25 -0.046875 C 4.164062 -0.0234375 4.03125 -0.00390625 3.84375 0.015625 C 3.664062 0.046875 3.484375 0.0625 3.296875 0.0625 C 3.117188 0.0625 2.960938 0.046875 2.828125 0.015625 C 2.691406 -0.015625 2.578125 -0.0625 2.484375 -0.125 C 2.390625 -0.195312 2.316406 -0.296875 2.265625 -0.421875 C 2.222656 -0.546875 2.203125 -0.710938 2.203125 -0.921875 L 2.203125 -5.46875 Z M 0.4375 -5.46875 "/></g></g></g><g fill="#000000" fill-opacity="1"><g transform="translate(131.334233, 15.75277)"><g><path d="M 0.765625 -6.03125 C 0.765625 -6.363281 0.859375 -6.628906 1.046875 -6.828125 C 1.242188 -7.023438 1.515625 -7.125 1.859375 -7.125 L 5.734375 -7.125 C 5.785156 -7.03125 5.832031 -6.910156 5.875 -6.765625 C 5.925781 -6.628906 5.953125 -6.484375 5.953125 -6.328125 C 5.953125 -6.035156 5.882812 -5.828125 5.75 -5.703125 C 5.625 -5.578125 5.453125 -5.515625 5.234375 -5.515625 L 2.765625 -5.515625 L 2.765625 -4.421875 L 5.40625 -4.421875 C 5.457031 -4.328125 5.503906 -4.210938 5.546875 -4.078125 C 5.585938 -3.941406 5.609375 -3.796875 5.609375 -3.640625 C 5.609375 -3.347656 5.546875 -3.132812 5.421875 -3 C 5.296875 -2.875 5.128906 -2.8125 4.921875 -2.8125 L 2.765625 -2.8125 L 2.765625 -1.59375 L 5.78125 -1.59375 C 5.832031 -1.5 5.878906 -1.378906 5.921875 -1.234375 C 5.972656 -1.097656 6 -0.953125 6 -0.796875 C 6 -0.503906 5.929688 -0.289062 5.796875 -0.15625 C 5.671875 -0.03125 5.5 0.03125 5.28125 0.03125 L 1.859375 0.03125 C 1.515625 0.03125 1.242188 -0.0625 1.046875 -0.25 C 0.859375 -0.445312 0.765625 -0.71875 0.765625 -1.0625 Z M 0.765625 -6.03125 "/></g></g></g><g fill="#000000" fill-opacity="1"><g transform="translate(137.775223, 15.75277)"><g><path d="M 5.6875 -1.75 C 5.582031 -1.664062 5.445312 -1.597656 5.28125 -1.546875 C 5.125 -1.492188 4.941406 -1.46875 4.734375 -1.46875 C 4.453125 -1.46875 4.21875 -1.503906 4.03125 -1.578125 C 3.851562 -1.648438 3.734375 -1.769531 3.671875 -1.9375 C 3.453125 -2.625 3.269531 -3.179688 3.125 -3.609375 C 2.988281 -4.035156 2.882812 -4.410156 2.8125 -4.734375 L 2.75 -4.734375 C 2.726562 -4.273438 2.707031 -3.851562 2.6875 -3.46875 C 2.675781 -3.09375 2.671875 -2.722656 2.671875 -2.359375 C 2.671875 -2.003906 2.660156 -1.640625 2.640625 -1.265625 C 2.628906 -0.898438 2.613281 -0.492188 2.59375 -0.046875 C 2.488281 -0.00390625 2.351562 0.0234375 2.1875 0.046875 C 2.03125 0.078125 1.867188 0.09375 1.703125 0.09375 C 1.359375 0.09375 1.085938 0.0390625 0.890625 -0.0625 C 0.703125 -0.175781 0.609375 -0.378906 0.609375 -0.671875 L 0.953125 -6.65625 C 1.015625 -6.757812 1.148438 -6.867188 1.359375 -6.984375 C 1.578125 -7.109375 1.875 -7.171875 2.25 -7.171875 C 2.664062 -7.171875 2.988281 -7.101562 3.21875 -6.96875 C 3.457031 -6.84375 3.632812 -6.632812 3.75 -6.34375 C 3.820312 -6.15625 3.894531 -5.9375 3.96875 -5.6875 C 4.050781 -5.445312 4.132812 -5.195312 4.21875 -4.9375 C 4.300781 -4.6875 4.378906 -4.429688 4.453125 -4.171875 C 4.535156 -3.921875 4.609375 -3.691406 4.671875 -3.484375 L 4.734375 -3.484375 C 4.921875 -4.148438 5.109375 -4.789062 5.296875 -5.40625 C 5.484375 -6.019531 5.65625 -6.53125 5.8125 -6.9375 C 5.9375 -7 6.085938 -7.050781 6.265625 -7.09375 C 6.453125 -7.144531 6.660156 -7.171875 6.890625 -7.171875 C 7.273438 -7.171875 7.585938 -7.113281 7.828125 -7 C 8.066406 -6.882812 8.207031 -6.722656 8.25 -6.515625 C 8.28125 -6.359375 8.3125 -6.113281 8.34375 -5.78125 C 8.382812 -5.457031 8.421875 -5.09375 8.453125 -4.6875 C 8.492188 -4.28125 8.535156 -3.847656 8.578125 -3.390625 C 8.617188 -2.941406 8.65625 -2.503906 8.6875 -2.078125 C 8.71875 -1.660156 8.742188 -1.273438 8.765625 -0.921875 C 8.796875 -0.578125 8.816406 -0.3125 8.828125 -0.125 C 8.691406 -0.0507812 8.550781 0 8.40625 0.03125 C 8.257812 0.0703125 8.070312 0.09375 7.84375 0.09375 C 7.550781 0.09375 7.300781 0.0390625 7.09375 -0.0625 C 6.894531 -0.164062 6.785156 -0.363281 6.765625 -0.65625 C 6.722656 -1.507812 6.691406 -2.273438 6.671875 -2.953125 C 6.660156 -3.640625 6.644531 -4.210938 6.625 -4.671875 L 6.5625 -4.671875 C 6.488281 -4.367188 6.375 -3.984375 6.21875 -3.515625 C 6.070312 -3.054688 5.894531 -2.46875 5.6875 -1.75 Z M 5.6875 -1.75 "/></g></g></g><path stroke-linecap="butt" transform="matrix(0.715487, 0, 0, 0.725806, 76.889228, 19.076621)" fill="none" stroke-linejoin="miter" d="M 0.00195226 1.498252 L 13.192271 1.498252 " stroke="#000000" stroke-width="3" stroke-opacity="1" stroke-miterlimit="4"/></svg>